<svg xmlns="http://www.w3.org/2000/svg" width="32" height="32" fill="none" xmlns:v="https://vecta.io/nano"><rect width="32" height="32" rx="16" fill="#c3a634"/><path fill-rule="evenodd" d="M13.248 14.61h4.314v2.286h-4.314v4.818h2.721c1.077 0 1.958-.145 2.644-.437s1.224-.694 1.615-1.21a4.4 4.4 0 0 0 .796-1.815 11.4 11.4 0 0 0 .21-2.252 11.4 11.4 0 0 0-.21-2.252c-.124-.658-.396-1.278-.796-1.815-.391-.516-.93-.919-1.615-1.21s-1.567-.437-2.644-.437h-2.721v4.325-.001zm-2.766 2.286H9v-2.285h1.482V8h6.549c1.21 0 2.257.21 3.142.627s1.607.99 2.168 1.715.977 1.572 1.25 2.543S24 14.895 24 16a11.47 11.47 0 0 1-.41 3.115c-.272.97-.689 1.819-1.25 2.543s-1.282 1.296-2.167 1.715S18.24 24 17.031 24h-6.549v-7.104h0z" fill="#fff"/></svg>