<svg xmlns="http://www.w3.org/2000/svg" width="32" height="32" fill="none" xmlns:v="https://vecta.io/nano"><rect y=".001" width="32" height="32" rx="16" fill="#121212"/><path d="M9.249 19.742a.66.66 0 0 1 .463-.187h15.96c.292 0 .438.345.231.548l-3.153 3.094a.66.66 0 0 1-.463.188H6.328c-.292 0-.437-.345-.231-.548l3.153-3.094z" fill="url(#A)"/><path d="M9.249 8.188a.68.68 0 0 1 .463-.188h15.96c.292 0 .438.345.231.548l-3.153 3.094a.66.66 0 0 1-.463.188H6.328c-.292 0-.437-.346-.231-.548l3.153-3.094z" fill="url(#B)"/><path d="M22.751 13.928a.66.66 0 0 0-.463-.187H6.328c-.292 0-.437.345-.231.548l3.153 3.094a.66.66 0 0 0 .463.188h15.96c.292 0 .438-.346.231-.548l-3.153-3.094z" fill="url(#C)"/><defs><linearGradient id="A" x1="24.148" y1="6.152" x2="13.423" y2="27.082" gradientUnits="userSpaceOnUse"><stop stop-color="#00ffa3"/><stop offset="1" stop-color="#dc1fff"/></linearGradient><linearGradient id="B" x1="19.318" y1="3.678" x2="8.593" y2="24.607" gradientUnits="userSpaceOnUse"><stop stop-color="#00ffa3"/><stop offset="1" stop-color="#dc1fff"/></linearGradient><linearGradient id="C" x1="21.717" y1="4.907" x2="10.993" y2="25.837" gradientUnits="userSpaceOnUse"><stop stop-color="#00ffa3"/><stop offset="1" stop-color="#dc1fff"/></linearGradient></defs></svg>