<svg xmlns="http://www.w3.org/2000/svg" width="32" height="32" fill="none" xmlns:v="https://vecta.io/nano"><rect y=".001" width="32" height="32" rx="16" fill="#26a17b"/><path fill-rule="evenodd" d="M17.622 17.565v-.002c-.11.008-.677.042-1.942.042a42.13 42.13 0 0 1-1.971-.042v.003c-3.888-.171-6.79-.848-6.79-1.658s2.902-1.486 6.79-1.66v2.644l1.988.061 1.925-.06V14.25c3.88.173 6.775.85 6.775 1.658s-2.895 1.485-6.775 1.657h0zm0-3.59v-2.366h5.414V8.001H8.295v3.608h5.414v2.365C9.309 14.176 6 15.048 6 16.092s3.309 1.915 7.709 2.118v7.582h3.913v-7.584c4.393-.202 7.694-1.073 7.694-2.116s-3.301-1.914-7.694-2.117" fill="#fff"/></svg>